<svg width="28" height="28" viewBox="0 0 28 28" fill="none" xmlns="http://www.w3.org/2000/svg">
<path d="M7.67833 11.6452C7.95214 8.35942 10.6989 5.83203 13.9961 5.83203V5.83203C17.2933 5.83203 20.04 8.35942 20.3139 11.6452L20.9961 19.832H6.99609L7.67833 11.6452Z" stroke="white" stroke-width="1.75"/>
<path d="M17.4961 22.166C17.4961 22.6256 17.4056 23.0808 17.2297 23.5054C17.0538 23.93 16.796 24.3159 16.471 24.6409C16.146 24.9659 15.7601 25.2237 15.3355 25.3996C14.9108 25.5755 14.4557 25.666 13.9961 25.666C13.5365 25.666 13.0813 25.5755 12.6567 25.3996C12.2321 25.2237 11.8462 24.9659 11.5212 24.6409C11.1962 24.3159 10.9384 23.93 10.7625 23.5054C10.5866 23.0808 10.4961 22.6256 10.4961 22.166L13.9961 22.166H17.4961Z" fill="#FB8800"/>
<path d="M13.9974 2.33203C15.6357 2.33203 17.2452 2.76329 18.6641 3.58246C20.0829 4.40163 21.2611 5.57985 22.0803 6.9987" stroke="white" stroke-width="1.75"/>
</svg>
