<svg width="28" height="28" viewBox="0 0 28 28" fill="none" xmlns="http://www.w3.org/2000/svg">
<path d="M4.69922 18.666H23.334" stroke="white" stroke-width="1.75"/>
<path d="M4.69922 23.3066H23.334" stroke="white" stroke-width="1.75"/>
<path d="M13.6737 2.00803C13.7892 1.71001 14.2108 1.71001 14.3263 2.00803L15.6877 5.52044C15.7373 5.64857 15.8574 5.73578 15.9946 5.74341L19.7557 5.95272C20.0749 5.97048 20.2052 6.37152 19.9574 6.57347L17.0376 8.95356C16.9311 9.04038 16.8853 9.1815 16.9204 9.31434L17.8836 12.9561C17.9653 13.2651 17.6242 13.513 17.3556 13.3398L14.1897 11.2983C14.0742 11.2239 13.9258 11.2239 13.8103 11.2983L10.6444 13.3397C10.3758 13.513 10.0347 13.2651 10.1164 12.9561L11.0796 9.31434C11.1147 9.1815 11.0689 9.04038 10.9624 8.95356L8.04256 6.57347C7.79482 6.37152 7.92513 5.97048 8.24426 5.95272L12.0054 5.74341C12.1426 5.73578 12.2627 5.64857 12.3123 5.52044L13.6737 2.00803Z" fill="#FB8800"/>
</svg>
